<mxfile host="app.diagrams.net" modified="2022-06-23T14:01:01.309Z" agent="5.0 (Macintosh; Intel Mac OS X 10_15_7) AppleWebKit/537.36 (KHTML, like Gecko) Chrome/102.0.0.0 Safari/537.36" etag="EyXlHMqxnDrziXMeF-I1" version="20.0.2" type="github">
  <diagram id="jBJSwnftDnE9K7OT6qKQ" name="Page-1">
    <mxGraphModel dx="1505" dy="640" grid="1" gridSize="10" guides="1" tooltips="1" connect="1" arrows="1" fold="1" page="1" pageScale="1" pageWidth="827" pageHeight="1169" math="0" shadow="0">
      <root>
        <mxCell id="0" />
        <mxCell id="1" parent="0" />
        <mxCell id="83er4BfiSJ7XrmKE6VWf-1" value="" style="group" vertex="1" connectable="0" parent="1">
          <mxGeometry x="160" y="240" width="810" height="420" as="geometry" />
        </mxCell>
        <mxCell id="Cg3wJJousEzFNF6Ard0S-1" value="" style="group;fontSize=16;fillColor=#d5e8d4;strokeColor=#82b366;container=0;" parent="83er4BfiSJ7XrmKE6VWf-1" vertex="1" connectable="0">
          <mxGeometry width="809.9999999999999" height="420" as="geometry" />
        </mxCell>
        <mxCell id="68Gu6tD-6aWjOVKYj89t-1" value="索引类型" style="rounded=0;whiteSpace=wrap;html=1;fillColor=#ffcd28;gradientColor=#ffa500;strokeColor=#d79b00;fontSize=16;" parent="83er4BfiSJ7XrmKE6VWf-1" vertex="1">
          <mxGeometry width="202.49999999999997" height="105" as="geometry" />
        </mxCell>
        <mxCell id="68Gu6tD-6aWjOVKYj89t-3" value="InnoDB 引擎" style="rounded=0;whiteSpace=wrap;html=1;fillColor=#ffcd28;gradientColor=#ffa500;strokeColor=#d79b00;fontSize=16;" parent="83er4BfiSJ7XrmKE6VWf-1" vertex="1">
          <mxGeometry x="202.49999999999997" width="202.49999999999997" height="105" as="geometry" />
        </mxCell>
        <mxCell id="68Gu6tD-6aWjOVKYj89t-4" value="MyISAM 引擎" style="rounded=0;whiteSpace=wrap;html=1;fillColor=#ffcd28;gradientColor=#ffa500;strokeColor=#d79b00;fontSize=16;" parent="83er4BfiSJ7XrmKE6VWf-1" vertex="1">
          <mxGeometry x="404.99999999999994" width="202.49999999999997" height="105" as="geometry" />
        </mxCell>
        <mxCell id="68Gu6tD-6aWjOVKYj89t-5" value="Memory 引擎" style="rounded=0;whiteSpace=wrap;html=1;fillColor=#ffcd28;gradientColor=#ffa500;strokeColor=#d79b00;fontSize=16;" parent="83er4BfiSJ7XrmKE6VWf-1" vertex="1">
          <mxGeometry x="607.5" width="202.49999999999997" height="105" as="geometry" />
        </mxCell>
        <mxCell id="68Gu6tD-6aWjOVKYj89t-6" value="B+Tree 索引" style="rounded=0;whiteSpace=wrap;html=1;fillColor=#fff2cc;gradientColor=#ffd966;strokeColor=#d6b656;fontSize=16;" parent="83er4BfiSJ7XrmKE6VWf-1" vertex="1">
          <mxGeometry y="105" width="202.49999999999997" height="105" as="geometry" />
        </mxCell>
        <mxCell id="68Gu6tD-6aWjOVKYj89t-7" value="HASH 索引" style="rounded=0;whiteSpace=wrap;html=1;fillColor=#fff2cc;gradientColor=#ffd966;strokeColor=#d6b656;fontSize=16;" parent="83er4BfiSJ7XrmKE6VWf-1" vertex="1">
          <mxGeometry y="210" width="202.49999999999997" height="105" as="geometry" />
        </mxCell>
        <mxCell id="68Gu6tD-6aWjOVKYj89t-8" value="Full-Text 索引" style="rounded=0;whiteSpace=wrap;html=1;fillColor=#fff2cc;gradientColor=#ffd966;strokeColor=#d6b656;fontSize=16;" parent="83er4BfiSJ7XrmKE6VWf-1" vertex="1">
          <mxGeometry y="315" width="202.49999999999997" height="105" as="geometry" />
        </mxCell>
        <mxCell id="68Gu6tD-6aWjOVKYj89t-9" value="Yes" style="rounded=0;whiteSpace=wrap;html=1;fillColor=#d5e8d4;strokeColor=#82b366;fontSize=16;" parent="83er4BfiSJ7XrmKE6VWf-1" vertex="1">
          <mxGeometry x="202.49999999999997" y="105" width="202.49999999999997" height="105" as="geometry" />
        </mxCell>
        <mxCell id="68Gu6tD-6aWjOVKYj89t-10" value="Yes" style="rounded=0;whiteSpace=wrap;html=1;fillColor=#d5e8d4;strokeColor=#82b366;fontSize=16;" parent="83er4BfiSJ7XrmKE6VWf-1" vertex="1">
          <mxGeometry x="404.99999999999994" y="105" width="202.49999999999997" height="105" as="geometry" />
        </mxCell>
        <mxCell id="68Gu6tD-6aWjOVKYj89t-11" value="Yes" style="rounded=0;whiteSpace=wrap;html=1;fillColor=#d5e8d4;strokeColor=#82b366;fontSize=16;" parent="83er4BfiSJ7XrmKE6VWf-1" vertex="1">
          <mxGeometry x="607.5" y="105" width="202.49999999999997" height="105" as="geometry" />
        </mxCell>
        <mxCell id="68Gu6tD-6aWjOVKYj89t-12" value="No&lt;br&gt;（不支持hash索引，但是在内存结构中有一个自适应hash索引）" style="rounded=0;whiteSpace=wrap;html=1;fillColor=#f5f5f5;fontColor=#333333;strokeColor=#666666;fontSize=16;" parent="83er4BfiSJ7XrmKE6VWf-1" vertex="1">
          <mxGeometry x="202.49999999999997" y="210" width="202.49999999999997" height="105" as="geometry" />
        </mxCell>
        <mxCell id="68Gu6tD-6aWjOVKYj89t-13" value="&lt;span style=&quot;color: rgb(0, 0, 0);&quot;&gt;Yes&lt;br&gt;（MySQL 5.6 版本后支持）&lt;/span&gt;" style="rounded=0;whiteSpace=wrap;html=1;fillColor=#d5e8d4;strokeColor=#82b366;fontSize=16;" parent="83er4BfiSJ7XrmKE6VWf-1" vertex="1">
          <mxGeometry x="202.49999999999997" y="315" width="202.49999999999997" height="105" as="geometry" />
        </mxCell>
        <mxCell id="68Gu6tD-6aWjOVKYj89t-14" value="No" style="rounded=0;whiteSpace=wrap;html=1;fillColor=#f5f5f5;fontColor=#333333;strokeColor=#666666;fontSize=16;" parent="83er4BfiSJ7XrmKE6VWf-1" vertex="1">
          <mxGeometry x="404.99999999999994" y="210" width="202.49999999999997" height="105" as="geometry" />
        </mxCell>
        <mxCell id="68Gu6tD-6aWjOVKYj89t-15" value="No" style="rounded=0;whiteSpace=wrap;html=1;fillColor=#f5f5f5;fontColor=#333333;strokeColor=#666666;fontSize=16;" parent="83er4BfiSJ7XrmKE6VWf-1" vertex="1">
          <mxGeometry x="607.5" y="315" width="202.49999999999997" height="105" as="geometry" />
        </mxCell>
        <mxCell id="68Gu6tD-6aWjOVKYj89t-16" value="Yes" style="rounded=0;whiteSpace=wrap;html=1;fillColor=#d5e8d4;strokeColor=#82b366;fontSize=16;" parent="83er4BfiSJ7XrmKE6VWf-1" vertex="1">
          <mxGeometry x="607.5" y="210" width="202.49999999999997" height="105" as="geometry" />
        </mxCell>
        <mxCell id="68Gu6tD-6aWjOVKYj89t-17" value="Yes" style="rounded=0;whiteSpace=wrap;html=1;fillColor=#d5e8d4;strokeColor=#82b366;fontSize=16;" parent="83er4BfiSJ7XrmKE6VWf-1" vertex="1">
          <mxGeometry x="404.99999999999994" y="315" width="202.49999999999997" height="105" as="geometry" />
        </mxCell>
      </root>
    </mxGraphModel>
  </diagram>
</mxfile>
